<?xml version="1.0" encoding="utf-8"?>
<!-- Generator: Adobe Illustrator 23.0.0, SVG Export Plug-In . SVG Version: 6.00 Build 0)  -->
<svg version="1.1" id="Layer_1" xmlns="http://www.w3.org/2000/svg" xmlns:xlink="http://www.w3.org/1999/xlink" x="0px" y="0px"
	 viewBox="0 0 100 100" style="enable-background:new 0 0 100 100;" xml:space="preserve">
<style type="text/css">
	.st0{fill:#333333;}
	.st1{fill:#DADADA;}
</style>
<g>
	<path class="st0" d="M99.3,50c0,16-7.7,30.1-19.4,39.2c-8.4,6.3-18.7,10.2-30,10.2s-21.6-3.8-30-10.2C8.2,80.1,0.7,65.9,0.7,50
		c0-27.2,22-49.3,49.3-49.3C77.3,0.7,99.3,22.8,99.3,50z"/>
	<path class="st1" d="M53.3,61.8h-6.6c-7.8,0-14.2-6.4-14.2-14.2V33.8c0-7.8,6.4-14.2,14.2-14.2h6.6c7.8,0,14.2,6.4,14.2,14.2v13.8
		C67.6,55.4,61.2,61.8,53.3,61.8z"/>
	<path class="st1" d="M80.1,82.2v4.9c0,0.7,0,1.4-0.1,2.1c-8.4,6.3-18.7,10.2-30,10.2s-21.6-3.8-30-10.2c0-0.7-0.1-1.4-0.1-2.1v-4.9
		c0-11.2,6.7-20.8,16.2-25.1c3.5-1.7,7.4-2.5,11.4-2.5h4.7c4,0,7.9,0.8,11.4,2.5C73.4,61.4,80.1,71,80.1,82.2z"/>
	<path class="st1" d="M67.6,38.7c0,0,9.1-17.3,4.9-21.9c-4.2-4.6-7.4-7.2-7.4-7.2s4.2,6.3,2.5,7.8c0,0-2.9-5.7-20.8-6.3
		c-22-0.6-22,3.5-22,3.5s6.4,5.2,7.2,12.1s0.7,7.8,0.7,7.8L67.6,38.7z"/>
	<path class="st0" d="M43,42.3L43,42.3c-1.3,0-2.4-1.1-2.4-2.4v-1.7c0-1.3,1.1-2.4,2.4-2.4l0,0c1.3,0,2.4,1.1,2.4,2.4V40
		C45.4,41.2,44.3,42.3,43,42.3z"/>
	<path class="st0" d="M56.1,42.3L56.1,42.3c-1.3,0-2.4-1.1-2.4-2.4v-1.7c0-1.3,1.1-2.4,2.4-2.4l0,0c1.3,0,2.4,1.1,2.4,2.4V40
		C58.5,41.2,57.5,42.3,56.1,42.3z"/>
	<path class="st1" d="M53.8,16.3c0,0,3.5-7.4-10.7-8.1c0,0,20.2-1.8,24.5,9.3C71.9,28.5,53.8,16.3,53.8,16.3z"/>
</g>
</svg>
