<?xml version="1.0" encoding="utf-8"?>
<!-- Generator: Adobe Illustrator 22.0.1, SVG Export Plug-In . SVG Version: 6.00 Build 0)  -->
<svg version="1.1" id="Layer_1" xmlns="http://www.w3.org/2000/svg" xmlns:xlink="http://www.w3.org/1999/xlink" x="0px" y="0px"
	 viewBox="0 0 352.2 74.9" enable-background="new 0 0 352.2 74.9" xml:space="preserve">
<g>
	<path fill="#FFFFFF" d="M79.2,30.2c-2-1.9-4.9-2.9-7.4-2.9c-6.3,0-10.1,4.8-10.1,10.8c0,4.8,2.8,9.8,10.1,9.8
		c2.3,0,4.3-0.5,6.6-2.3v-5.2H71v-5h12.6v12.3c-2.9,3.3-6.5,5.2-11.7,5.2c-11,0-15.5-7.2-15.5-15c0-8.3,5.1-15.9,15.5-15.9
		c4,0,7.9,1.5,10.9,4.5L79.2,30.2z"/>
	<path fill="#FFFFFF" d="M108.8,46.8H93.5L91,52.4h-6L98.2,23h6l13.1,29.3h-6L108.8,46.8z M101.1,29.1l-5.5,12.4h10.9L101.1,29.1z"
		/>
	<path fill="#FFFFFF" d="M144.9,31.1l-9.5,12.8h-1.2l-9.3-12.8v21.3h-5.6V23.1h6.4l9.2,12.6l9.2-12.6h6.3v29.3h-5.6V31.1H144.9z"/>
	<path fill="#FFFFFF" d="M155.7,52.3V23h5.5v29.3H155.7z"/>
	<path fill="#FFFFFF" d="M185.6,23h5.6v29.3h-3.5l0,0l-15.5-19.8v19.8h-5.5V23h4.5l14.4,18.1L185.6,23L185.6,23z"/>
	<path fill="#FFFFFF" d="M218.1,30.2c-2-1.9-4.9-2.9-7.4-2.9c-6.3,0-10.1,4.8-10.1,10.8c0,4.8,2.8,9.8,10.1,9.8
		c2.3,0,4.3-0.5,6.6-2.3v-5.2h-7.4v-5h12.6v12.3c-2.9,3.3-6.5,5.2-11.7,5.2c-11,0-15.5-7.2-15.5-15c0-8.3,5.1-15.9,15.5-15.9
		c4,0,7.9,1.5,10.9,4.5L218.1,30.2z"/>
	<path fill="#EF0034" d="M252.4,31.1l-9.5,12.8h-1l-9.3-12.8v21.3h-5.6V23.1h6.4l9.2,12.6l9.2-12.6h6.3v29.3h-5.6V31.1z"/>
	<path fill="#EF0034" d="M291.9,37.9c-0.1,7.6-4.8,15.1-15,15.1c-10.2,0-15.1-7.4-15.1-15.1s5-15.5,15.1-15.5
		C286.9,22.4,292,30.2,291.9,37.9z M267.3,38c0.1,4.8,2.7,10,9.7,10c7,0,9.5-5.2,9.7-10c0.1-5-2.7-10.5-9.7-10.5
		C269.9,27.5,267.1,33,267.3,38z"/>
	<path fill="#EF0034" d="M315.2,23h5.6v29.3h-3.5l0,0l-15.5-19.8v19.8h-5.6V23h4.5l14.4,18.1V23z"/>
	<path fill="#EF0034" d="M349.3,23.2l-13,14l14.1,14.8v0.3h-6.9l-12.3-13v13h-5.6V23h5.6v12.4L342.4,23h6.9v0.2H349.3z"/>
</g>
<g>
	<circle fill="#FFFFFF" cx="25.7" cy="37.5" r="21.6"/>
	<path d="M39.5,48.3c-0.5,1.7-2.1,2.4-4.8,3.2c-1.4,0.4-3.6,0.7-5.3,0.8l0,0c-0.9,0.1-1.9,0.1-2.6,0.2c-0.2,0-0.3,0-0.3,0l0,0
		c-0.1,0-0.3,0-0.4,0l0,0c0,0-0.1,0-0.3,0c-1.1,0-1.7-0.1-1.7-0.1l0,0c-1.9-0.1-4.6-0.4-6.3-0.9c-2.8-0.8-4.4-1.5-4.8-3.2
		c-0.5-1.7,0.4-4.3,1.3-5.2c1-0.9,2-1,2.9-0.4c0.9,0.6,1.4,1.4,1.4,1.4s-0.7-1.4-1.4-1.8l-0.7-0.4c0,0,0.9-4.9,1.3-6.3
		c0.5-1.4,2-6.1,4.7-6.4l3.6,6.5l-1.4,3c0,0-1.2,0.1-1.3,0.5l-0.1,0.4c0,0,2.2,0.2,2.2,0.8s-0.3,2-1.6,2l-1.3,0.1c0,0,0,0.5,0.4,0.7
		c0.3,0.1,0.3,0,0.3,0l1.3-1.1h1.3l0,0h0.4l0,0h1.3l1.3,1.1c0,0,0.1,0.1,0.5-0.1c0.3-0.2,0.4-0.7,0.4-0.7l-1.3-0.1
		c-1.3-0.1-1.6-1.4-1.6-2s2.2-0.8,2.2-0.8L29,38.9c-0.1-0.3-1-0.4-1.2-0.4c-0.4,0.1-0.8,0.6-0.8,0.6h-1.4l-0.2-0.2
		c-0.2-0.2-0.3-0.4-0.3-0.4l1.3-3l0,0l3.6-6.5c2.8,0.3,4.2,5,4.7,6.4c0.5,1.4,1.3,6.3,1.3,6.3l-0.7,0.4c-0.7,0.4-1.4,1.8-1.4,1.8
		s0.5-0.7,1.4-1.4c0.9-0.6,2-0.5,2.9,0.4C39,43.9,39.9,46.5,39.5,48.3z M29.2,24.6c-0.1,0.3-0.3,0.8-0.3,1.5c0,0.6,0.1,1.1,0.3,1.5
		V28v1.1c0,0-1.1,1.3-2,2l0,0l0,0c-0.2,0.1-0.4,0.3-0.6,0.3c-0.8,0.2-1.3-0.2-1.3-0.2l0,0C24.3,30.6,23,29,23,29l0,0v-1.5
		c0.1-0.3,0.3-0.8,0.3-1.5c0-0.6-0.1-1.1-0.3-1.5v-0.4l0,0c0.1-1.5,1.4-2.8,3.1-2.8c1.7,0,3,1.2,3.1,2.8l0,0
		C29.2,24.1,29.2,24.6,29.2,24.6z M25.3,28l-1.5-0.5C25.1,29.2,25.3,28,25.3,28z M25.7,24.3h-0.3v0.3h0.3V24.3z M25.7,23.5h-0.3v0.3
		h0.3V23.5z M25.7,22.7h-0.3V23h0.3V22.7z M26.7,24.3h-0.3v0.3h0.3V24.3z M26.7,23.5h-0.3v0.3h0.3V23.5z M26.7,22.7h-0.3V23h0.3
		V22.7z M28.1,29.5c-0.2,0.3-0.6,0.6-1,0.7c0.1,0,0.2,0,0.3,0C27.8,30.2,28,29.9,28.1,29.5z M28.5,27.5L26.9,28
		C26.9,28,27.1,29.2,28.5,27.5z M30.2,26.1c0-0.5-0.1-0.9-0.3-1.1c-0.1-0.4-0.2-0.6-0.3-0.6c-0.3,0-0.5,0.7-0.5,1.7
		c0,0.9,0.2,1.7,0.5,1.7c0.1,0,0.3-0.2,0.3-0.5C30,27.1,30.2,26.6,30.2,26.1z M22.7,24.3c-0.1,0-0.3,0.3-0.3,0.6
		C22.2,25.1,22,25.5,22,26c0,0.5,0.1,1,0.3,1.1c0.1,0.3,0.2,0.5,0.3,0.5c0.3,0,0.5-0.7,0.5-1.7C23.1,25.1,22.9,24.3,22.7,24.3z
		 M23.9,21.9c0.5-0.5,1.3-0.8,2.1-0.8c1.7,0,3.2,1.4,3.2,3.3c0-0.1,0-0.1,0-0.2c0-1.9-1.5-3.4-3.2-3.4c-0.8,0-1.5,0.3-2.1,0.8
		c-0.7,0.6-1.1,1.5-1.1,2.6c0,0.1,0,0.1,0,0.2C22.8,23.4,23.2,22.5,23.9,21.9"/>
</g>
</svg>
