<?xml version="1.0" encoding="utf-8"?>
<!-- Generator: Adobe Illustrator 23.0.0, SVG Export Plug-In . SVG Version: 6.00 Build 0)  -->
<svg version="1.1" id="Layer_1" xmlns="http://www.w3.org/2000/svg" xmlns:xlink="http://www.w3.org/1999/xlink" x="0px" y="0px"
	 viewBox="0 0 64 64" style="enable-background:new 0 0 64 64;" xml:space="preserve">
<style type="text/css">
	.st0{display:none;}
	.st1{display:inline;}
	.st2{fill:none;stroke:#949494;stroke-width:2.5;stroke-linejoin:round;stroke-miterlimit:10;}
	.st3{fill:none;stroke:#949494;stroke-width:2.5;stroke-linecap:round;stroke-linejoin:round;stroke-miterlimit:10;}
	.st4{fill:none;stroke:#949494;stroke-width:3.5;stroke-linejoin:round;stroke-miterlimit:10;}
	.st5{fill:none;stroke:#949494;stroke-width:3.5;stroke-linecap:round;stroke-linejoin:round;stroke-miterlimit:10;}
</style>
<g class="st0">
	<g id="Layer_3" class="st1">
		<path class="st2" d="M-25.6,59.2h-46c-1.5,0-2.7-1.2-2.7-2.7v-46c0-1.5,1.2-2.7,2.7-2.7h46c1.5,0,2.7,1.2,2.7,2.7v46
			C-22.9,58-24.1,59.2-25.6,59.2z"/>
		<path class="st2" d="M-22.9,15.4h2.1c1.6,0,2.9,1.3,2.9,2.9v32.9c0,4.4-3.6,8-8,8"/>
		<path class="st2" d="M-51.6,38.1h-13.3c-0.8,0-1.4-0.6-1.4-1.4V24c0-0.8,0.6-1.4,1.4-1.4h13.2c0.8,0,1.4,0.6,1.4,1.4v12.8
			C-50.3,37.5-50.9,38.1-51.6,38.1z"/>
		<line class="st3" x1="-66.2" y1="17.2" x2="-30.4" y2="17.2"/>
		<line class="st3" x1="-45.8" y1="23.9" x2="-30.4" y2="23.9"/>
		<line class="st3" x1="-45.8" y1="30.4" x2="-30.4" y2="30.4"/>
		<line class="st3" x1="-45.8" y1="36.9" x2="-30.4" y2="36.9"/>
		<line class="st3" x1="-45.8" y1="43.5" x2="-30.4" y2="43.5"/>
		<line class="st3" x1="-45.8" y1="50" x2="-30.4" y2="50"/>
		<line class="st3" x1="-66.2" y1="50" x2="-50.8" y2="50"/>
		<line class="st3" x1="-66.2" y1="43.5" x2="-50.8" y2="43.5"/>
	</g>
</g>
<g>
	<circle class="st4" cx="32" cy="32" r="30"/>
	<path class="st5" d="M47.6,41.8c-3.2,5.2-9.1,8.7-15.6,8.7c-1.5,0-2.9-0.2-4.1-0.5"/>
	<g>
		<path class="st4" d="M22.5,35.4h-5.6c-4.9,0-9-4-9-9v-0.2c0-2.9,2.3-5.1,5.1-5.1c3.6,0,8.5,0,12.1,0c2.8,0,5.1,2.3,5.1,5.1v1.5
			C30.1,31.9,26.7,35.4,22.5,35.4z"/>
		<path class="st4" d="M41.5,35.4h5.6c4.9,0,9-4,9-9v-0.2c0-2.9-2.3-5.1-5.1-5.1c-3.6,0-8.5,0-12.1,0c-2.8,0-5.1,2.3-5.1,5.1v1.5
			C33.9,31.9,37.3,35.4,41.5,35.4z"/>
		<line class="st5" x1="30.5" y1="27.2" x2="33.5" y2="27.2"/>
	</g>
</g>
</svg>
