<?xml version="1.0" encoding="utf-8"?>
<!-- Generator: Adobe Illustrator 23.0.0, SVG Export Plug-In . SVG Version: 6.00 Build 0)  -->
<svg version="1.1" id="Layer_1" xmlns="http://www.w3.org/2000/svg" xmlns:xlink="http://www.w3.org/1999/xlink" x="0px" y="0px"
	 viewBox="0 0 64 64" style="enable-background:new 0 0 64 64;" xml:space="preserve">
<style type="text/css">
	.st0{fill:none;stroke:#949494;stroke-width:3.6776;stroke-linejoin:round;stroke-miterlimit:10;}
	.st1{fill:none;stroke:#949494;stroke-width:3.6776;stroke-linecap:round;stroke-linejoin:round;stroke-miterlimit:10;}
</style>
<g id="Layer_3">
	<path class="st0" d="M53.7,58.4H5.3c-1.6,0-2.8-1.3-2.8-2.8V7.2c0-1.6,1.3-2.8,2.8-2.8h48.3c1.6,0,2.8,1.3,2.8,2.8v48.3
		C56.5,57.1,55.2,58.4,53.7,58.4z"/>
	<path class="st0" d="M56.5,12.4h2.2c1.7,0,3,1.4,3,3V50c0,4.6-3.8,8.4-8.4,8.4"/>
	<path class="st0" d="M26.4,36.2h-14c-0.8,0-1.5-0.6-1.5-1.5V21.4c0-0.8,0.6-1.5,1.5-1.5h13.9c0.8,0,1.5,0.6,1.5,1.5v13.4
		C27.7,35.6,27.1,36.2,26.4,36.2z"/>
	<line class="st1" x1="11" y1="14.3" x2="48.6" y2="14.3"/>
	<line class="st1" x1="32.4" y1="21.3" x2="48.6" y2="21.3"/>
	<line class="st1" x1="32.4" y1="28.1" x2="48.6" y2="28.1"/>
	<line class="st1" x1="32.4" y1="35" x2="48.6" y2="35"/>
	<line class="st1" x1="11" y1="41.9" x2="49.3" y2="41.9"/>
	<line class="st1" x1="11" y1="48.7" x2="49.3" y2="48.7"/>
</g>
</svg>
