<?xml version="1.0" encoding="utf-8"?>
<!-- Generator: Adobe Illustrator 22.1.0, SVG Export Plug-In . SVG Version: 6.00 Build 0)  -->
<svg version="1.1" id="Layer_2_1_" xmlns="http://www.w3.org/2000/svg" xmlns:xlink="http://www.w3.org/1999/xlink" x="0px" y="0px"
	 viewBox="0 0 64 64" style="enable-background:new 0 0 64 64;" xml:space="preserve">
<style type="text/css">
	.st0{fill:none;stroke:#949494;stroke-width:2.5;stroke-miterlimit:10;}
	.st1{fill:none;stroke:#949494;stroke-width:2.5;stroke-linecap:round;stroke-miterlimit:10;}
	.st2{fill:none;stroke:#949494;stroke-width:2.5;stroke-linecap:square;stroke-miterlimit:10;}
</style>
<g id="Layer_4">
	<path class="st0" d="M19.8,51.5V6.8c0-0.4-0.1-0.8-0.3-1.2c-0.4-0.7-1.2-1.2-2-1.2H9.9C9.2,4.4,8.7,5,8.7,5.6v45.9"/>
	<path class="st1" d="M9.9,4.4h48.2c1.4,0,2.5,1.1,2.5,2.5v28.7c0,1.4-1.1,2.5-2.5,2.5H20.6"/>
	<line class="st2" x1="20.8" y1="16.2" x2="60.2" y2="16.2"/>
	<line class="st2" x1="20.9" y1="27.6" x2="60.2" y2="27.6"/>
	<line class="st2" x1="34.1" y1="4.6" x2="34.1" y2="37.5"/>
	<line class="st2" x1="46.7" y1="4.6" x2="46.7" y2="37.5"/>
	<path class="st0" d="M22.3,60.7H6.1c-1.6,0-2.9-1.3-2.9-2.9v-3.3c0-1.6,1.3-2.9,2.9-2.9h16.2c1.6,0,2.9,1.3,2.9,2.9v3.3
		C25.2,59.4,23.9,60.7,22.3,60.7z"/>
</g>
</svg>
