<?xml version="1.0" encoding="utf-8"?>
<!-- Generator: Adobe Illustrator 23.0.0, SVG Export Plug-In . SVG Version: 6.00 Build 0)  -->
<svg version="1.1" id="Layer_2_1_" xmlns="http://www.w3.org/2000/svg" xmlns:xlink="http://www.w3.org/1999/xlink" x="0px" y="0px"
	 viewBox="0 0 64 64" style="enable-background:new 0 0 64 64;" xml:space="preserve">
<style type="text/css">
	.st0{fill:none;stroke:#949494;stroke-width:3.5;stroke-miterlimit:10;}
	.st1{fill:none;stroke:#949494;stroke-width:3.5;stroke-linecap:round;stroke-miterlimit:10;}
	.st2{fill:none;stroke:#949494;stroke-width:3.5;stroke-linecap:square;stroke-miterlimit:10;}
</style>
<g id="Layer_4">
	<path class="st0" d="M19.5,52V6.1c0-0.4-0.1-0.8-0.3-1.2c-0.4-0.7-1.2-1.2-2.1-1.2H9.3c-0.7,0-1.2,0.6-1.2,1.2V52"/>
	<path class="st1" d="M9.3,3.7h49.4c1.4,0,2.6,1.1,2.6,2.6v29.4c0,1.4-1.1,2.6-2.6,2.6H20.3"/>
	<line class="st2" x1="20.5" y1="15.8" x2="60.9" y2="15.8"/>
	<line class="st2" x1="20.6" y1="27.5" x2="60.9" y2="27.5"/>
	<line class="st2" x1="34.2" y1="3.9" x2="34.2" y2="37.6"/>
	<line class="st2" x1="47.1" y1="3.9" x2="47.1" y2="37.6"/>
	<path class="st0" d="M22.1,61.4H5.4c-1.6,0-3-1.3-3-3v-3.4c0-1.6,1.3-3,3-3h16.6c1.6,0,3,1.3,3,3v3.4C25,60.1,23.7,61.4,22.1,61.4z
		"/>
</g>
</svg>
