<?xml version="1.0" encoding="utf-8"?>
<!-- Generator: Adobe Illustrator 23.0.0, SVG Export Plug-In . SVG Version: 6.00 Build 0)  -->
<svg version="1.1" xmlns="http://www.w3.org/2000/svg" xmlns:xlink="http://www.w3.org/1999/xlink" x="0px" y="0px"
	 viewBox="0 0 64 64" style="enable-background:new 0 0 64 64;" xml:space="preserve">
<style type="text/css">
	.st0{fill:none;stroke:#949494;stroke-width:3.649;stroke-miterlimit:10;}
</style>
<g id="Layer_1">
</g>
<g id="Layer_2">
	<g>
		<path class="st0" d="M41.7,61.3H23.1c-0.5,0-0.9-0.4-0.9-0.9V3.7c0-0.5,0.4-0.9,0.9-0.9h18.6c0.5,0,0.9,0.4,0.9,0.9v56.6
			C42.7,60.8,42.3,61.3,41.7,61.3z"/>
		<path class="st0" d="M22.8,61.3H3V22.8C3,22.3,3.3,22,3.8,22h19"/>
		<path class="st0" d="M42.7,33.6h18.1c0.1,0,0.3,0.1,0.3,0.3v27.4H41.1c-0.4,0-0.7-0.3-0.7-0.7V60"/>
	</g>
</g>
</svg>
