<?xml version="1.0" encoding="utf-8"?>
<!-- Generator: Adobe Illustrator 23.0.0, SVG Export Plug-In . SVG Version: 6.00 Build 0)  -->
<svg version="1.1" id="Layer_3_1_" xmlns="http://www.w3.org/2000/svg" xmlns:xlink="http://www.w3.org/1999/xlink" x="0px" y="0px"
	 viewBox="0 0 64 64" style="enable-background:new 0 0 64 64;" xml:space="preserve">
<style type="text/css">
	.st0{fill:none;stroke:#949494;stroke-width:3.5;stroke-miterlimit:10;}
</style>
<g>
	<path class="st0" d="M8.5,51.3L28.8,61c2,0.9,4.3,0.9,6.2,0l20.4-9.7c2.5-1.2,4.1-3.7,4.1-6.5V18.4c0-2.9-1.7-5.5-4.4-6.7L34.8,2.9
		c-1.8-0.8-3.9-0.8-5.7,0L8.8,11.6c-2.7,1.1-4.4,3.8-4.4,6.7v26.5C4.4,47.6,6,50.1,8.5,51.3z"/>
	<path class="st0" d="M59.5,14.8l-26.2,10c-0.9,0.3-1.8,0.3-2.7,0l-26.2-10"/>
	<line class="st0" x1="31.9" y1="26.2" x2="31.9" y2="61.7"/>
</g>
</svg>
