<?xml version="1.0" encoding="utf-8"?>
<!-- Generator: Adobe Illustrator 23.0.0, SVG Export Plug-In . SVG Version: 6.00 Build 0)  -->
<svg version="1.1" xmlns="http://www.w3.org/2000/svg" xmlns:xlink="http://www.w3.org/1999/xlink" x="0px" y="0px"
	 viewBox="0 0 64 64" style="enable-background:new 0 0 64 64;" xml:space="preserve">
<style type="text/css">
	.st0{display:none;opacity:0.13;}
	.st1{display:inline;}
	.st2{fill:none;stroke:#949494;stroke-width:3.5;stroke-miterlimit:10;}
	.st3{fill:none;stroke:#949494;stroke-width:3.5;stroke-linecap:round;stroke-linejoin:round;stroke-miterlimit:10;}
</style>
<g id="Layer_3_1_" class="st0">
	<g class="st1">
		<circle class="st2" cx="-42.4" cy="64" r="29.9"/>
		<polygon class="st3" points="-24.9,64 -54.1,47.2 -54.1,80.8 		"/>
	</g>
</g>
<g id="Layer_4">
	<path class="st2" d="M56.8,43.3v15.4c0,1.6-1.3,2.9-2.9,2.9H6.8h37.6H6.8c-1.6,0-4,0.4-4-4.6L3,17"/>
	<path class="st2" d="M16.2,12.1H6.8c-2.2,0-4,1.8-4,4c0,2.2,1.8,4,4,4c0.3,0,0.9,0,1.3,0l-1.3,0h47c1.6,0,2.9,1.3,2.9,2.9v12.1"/>
	<path class="st2" d="M47.7,20.1v-5c0-1.6-1.3-2.9-2.9-2.9h-7.2"/>
	<path class="st2" d="M49.3,43.3h10.2c0.7,0,1.2-0.6,1.2-1.2v-5.8c0-0.7-0.6-1.2-1.2-1.2H49.3c-0.7,0-1.2,0.6-1.2,1.2v5.8
		C48.1,42.8,48.7,43.3,49.3,43.3z"/>
	<line class="st2" x1="37.5" y1="12.1" x2="47.7" y2="20.1"/>
	<path class="st2" d="M9.9,20.1L22.8,3.8c0.9-1.1,2.5-1.3,3.6-0.4l11.2,8.8"/>
</g>
</svg>
