<svg xmlns="http://www.w3.org/2000/svg" id="prefix__Twitter_bird_logo_2012" width="14.572" height="11.842" viewBox="0 0 14.572 11.842">
    <path id="prefix__Path_26" d="M544.764 581.692a8.448 8.448 0 008.506-8.506c0-.129 0-.258-.008-.387a6.078 6.078 0 001.491-1.548 5.963 5.963 0 01-1.717.471 3 3 0 001.315-1.654 6 6 0 01-1.9.726 2.992 2.992 0 00-5.094 2.726 8.489 8.489 0 01-6.157-3.12 2.992 2.992 0 00.926 3.991 2.967 2.967 0 01-1.354-.374v.038a2.99 2.99 0 002.4 2.93 2.979 2.979 0 01-1.35.051 2.993 2.993 0 002.793 2.076 6 6 0 01-3.713 1.28 6.067 6.067 0 01-.713-.041 8.464 8.464 0 004.583 1.343" data-name="Path 26" transform="translate(-540.181 -569.849)" style="fill:#a3a3a3"/>
</svg>
