<svg xmlns="http://www.w3.org/2000/svg" width="16.286" height="11.397" viewBox="0 0 16.286 11.397">
    <path id="prefix__path4156" d="M57 79.225a50.008 50.008 0 00-6.367.332A2.1 2.1 0 0049.2 81a23.288 23.288 0 000 7.836 2.073 2.073 0 001.438 1.438 48.63 48.63 0 006.362.348 50.147 50.147 0 006.378-.332 2.024 2.024 0 001.428-1.438 21.017 21.017 0 00.342-3.913 20.367 20.367 0 00-.34-3.939 2.011 2.011 0 00-1.428-1.428 47.312 47.312 0 00-6.38-.347zm-1.62 3.259l4.235 2.444-4.235 2.434z" transform="translate(-48.864 -79.225)" style="fill:#a3a3a3"/>
</svg>
